<svg width="35" height="35" viewBox="0 0 35 35" fill="none" xmlns="http://www.w3.org/2000/svg">
<rect width="35" height="35" rx="17.5" fill="#16182D"/>
<path d="M17.7635 20.466L17.7825 20.371C18.4285 20.3963 19.0238 20.466 19.5685 20.58C20.1131 20.6813 20.5818 20.846 20.9745 21.074C21.3798 21.302 21.6901 21.6123 21.9055 22.005C22.1335 22.3977 22.2475 22.8917 22.2475 23.487C22.2475 24.171 22.0448 24.7853 21.6395 25.33C21.2468 25.8747 20.6895 26.3053 19.9675 26.622C19.2455 26.9387 18.3968 27.097 17.4215 27.097C16.4841 27.097 15.6545 26.926 14.9325 26.584C14.2105 26.2547 13.6531 25.805 13.2605 25.235C12.8805 24.665 12.7158 24.019 12.7665 23.297H14.7615C14.7741 23.677 14.8818 24.0127 15.0845 24.304C15.2998 24.5953 15.6038 24.8233 15.9965 24.988C16.4018 25.1527 16.8768 25.235 17.4215 25.235C18.2575 25.235 18.8971 25.0577 19.3405 24.703C19.7965 24.361 20.0245 23.8733 20.0245 23.24C20.0245 22.6067 19.7648 22.138 19.2455 21.834C18.7388 21.5173 18.0231 21.359 17.0985 21.359H15.6735V19.649H17.0985C17.7318 19.649 18.2511 19.592 18.6565 19.478C19.0618 19.3513 19.3595 19.1613 19.5495 18.908C19.7395 18.642 19.8345 18.319 19.8345 17.939C19.8345 17.3943 19.6381 16.9637 19.2455 16.647C18.8655 16.3303 18.2575 16.172 17.4215 16.172C16.6488 16.172 16.0408 16.3367 15.5975 16.666C15.1541 16.9953 14.9261 17.4323 14.9135 17.977H12.8995C12.8615 17.4197 12.9501 16.9193 13.1655 16.476C13.3935 16.0327 13.7165 15.6527 14.1345 15.336C14.5651 15.0067 15.0591 14.7533 15.6165 14.576C16.1865 14.3987 16.7881 14.31 17.4215 14.31C18.3715 14.31 19.1885 14.4557 19.8725 14.747C20.5691 15.0257 21.1011 15.4183 21.4685 15.925C21.8358 16.4317 22.0195 17.0143 22.0195 17.673C22.0195 18.2177 21.9118 18.6673 21.6965 19.022C21.4938 19.3767 21.1961 19.6617 20.8035 19.877C20.4235 20.0797 19.9738 20.2253 19.4545 20.314C18.9478 20.4027 18.3841 20.4533 17.7635 20.466Z" fill="white"/>
</svg>
