<svg width="35" height="35" viewBox="0 0 35 35" fill="none" xmlns="http://www.w3.org/2000/svg">
<rect width="35" height="35" rx="17.5" fill="#16182D"/>
<path d="M18.5208 21.131L15.6518 22.727L15.5378 22.271H22.0738V24H13.0868V22.271C14.1128 21.7137 15.0311 21.245 15.8418 20.865C16.6525 20.4723 17.3365 20.1177 17.8938 19.801C18.4638 19.4843 18.8945 19.1613 19.1858 18.832C19.4898 18.5027 19.6418 18.1353 19.6418 17.73C19.6418 17.4007 19.5595 17.1157 19.3948 16.875C19.2301 16.6343 18.9705 16.4507 18.6158 16.324C18.2738 16.1847 17.8305 16.115 17.2858 16.115C16.5765 16.115 15.9938 16.2797 15.5378 16.609C15.0818 16.9257 14.8411 17.3563 14.8158 17.901H12.8208C12.7701 17.2043 12.9221 16.59 13.2768 16.058C13.6441 15.526 14.1698 15.108 14.8538 14.804C15.5505 14.4873 16.3485 14.329 17.2478 14.329C17.9445 14.329 18.5715 14.405 19.1288 14.557C19.6861 14.709 20.1611 14.9307 20.5538 15.222C20.9591 15.5007 21.2695 15.8363 21.4848 16.229C21.7001 16.609 21.8078 17.0333 21.8078 17.502C21.8078 17.882 21.7381 18.2303 21.5988 18.547C21.4721 18.851 21.2695 19.1487 20.9908 19.44C20.7248 19.7187 20.3828 19.9973 19.9648 20.276C19.5595 20.542 19.0781 20.827 18.5208 21.131Z" fill="white"/>
</svg>
